<?xml version="1.0" encoding="utf-8"?>
<!-- Generator: Adobe Illustrator 20.1.0, SVG Export Plug-In . SVG Version: 6.00 Build 0)  -->
<svg version="1.1" id="Layer_1" xmlns="http://www.w3.org/2000/svg" xmlns:xlink="http://www.w3.org/1999/xlink" x="0px" y="0px"
	 viewBox="0 0 489.6 187.1" style="enable-background:new 0 0 489.6 187.1;" xml:space="preserve">
<style type="text/css">
	.st0{fill:url(#SVGID_1_);}
	.st1{fill:#1E2333;}
</style>
<g>
	<linearGradient id="SVGID_1_" gradientUnits="userSpaceOnUse" x1="304.1253" y1="-68.3332" x2="153.9678" y2="191.7472">
		<stop  offset="0" style="stop-color:#C7FDB1"/>
		<stop  offset="0.4643" style="stop-color:#51F1D7"/>
		<stop  offset="1" style="stop-color:#2FC898"/>
	</linearGradient>
	<rect x="29.7" y="3.4" class="st0" width="398.6" height="116.6"/>
	<g>
		<path style="fill: #FFF" fill="#FFF" class="st1" d="M23,19.6c1.2-0.5,2.4-0.9,3.7-1.2c1.3-0.4,2.6-0.7,3.9-0.9c1.3-0.2,2.5-0.4,3.6-0.5s2.1-0.2,2.9-0.2
			c6,0,11.2,0.8,15.5,2.4c4.3,1.6,7.7,3.9,10.4,7c2.7,3,4.6,6.8,5.9,11.2c1.2,4.4,1.8,9.5,1.8,15.1c0,8.2-0.9,15.5-2.6,21.9
			c-1.8,6.4-4.3,11.9-7.5,16.4c-3.2,4.5-7.1,7.9-11.6,10.2c-4.5,2.4-9.6,3.5-15.2,3.5c-2.4,0-4.8-0.1-7.2-0.3
			c-2.4-0.2-4.7-0.4-6.8-0.8c-2.2-0.4-4.2-0.9-6.1-1.5c-1.9-0.6-3.5-1.4-4.8-2.3c-1.4-0.9-2.4-2-3.2-3.2c-0.8-1.2-1.2-2.6-1.2-4.2
			c0-2,0-4.3,0-6.8c0-2.6,0.1-5.2,0.1-8.1c0.1-2.8,0.1-5.7,0.2-8.7c0.1-2.9,0.1-5.8,0.2-8.6C5,53.7,5.1,46.9,5.3,40
			c-0.6-1.4-1.2-3.1-1.5-4.9c-0.4-1.8-0.6-4-0.6-6.6c0-1.6,0.4-2.9,1.2-3.9c0.8-1.1,2-2,3.7-2.7c1.6-0.7,3.7-1.2,6.2-1.6
			S19.7,19.8,23,19.6z M45.1,59.8c0-3.1-0.3-5.8-0.8-8.2s-1.4-4.5-2.6-6.3c-1.2-1.8-2.7-3.3-4.5-4.5c-1.8-1.2-4-2.2-6.6-2.9
			c0,3.1,0,6.4-0.1,10.1c-0.1,3.7-0.1,7.5-0.3,11.5c-0.1,4-0.3,8.1-0.4,12.4c-0.2,4.2-0.3,8.5-0.5,12.7c0.7,0.4,1.5,0.7,2.3,0.9
			c0.8,0.2,1.5,0.3,2.2,0.3c0.8,0,1.5-0.1,2.4-0.2c0.8-0.2,1.7-0.5,2.5-1.1c0.8-0.6,1.6-1.4,2.4-2.5c0.8-1.1,1.5-2.6,2.1-4.5
			c0.6-1.9,1.1-4.3,1.4-7.1C45,67.3,45.1,63.8,45.1,59.8z"/>
		<path style="fill: #FFF" fill="#FFF" class="st1" d="M80,38.9c-0.6-1.9-1-3.9-1.3-5.7c-0.3-1.9-0.4-3.6-0.4-5.1c0-1.6,0.4-3,1.3-4.3c0.9-1.3,2.1-2.5,3.8-3.4
			c1.6-1,3.7-1.7,6-2.3c2.4-0.5,5.1-0.8,8.2-0.8c2.3,0,4.1,0.2,5.4,0.5c1.3,0.3,2.3,0.8,3,1.3c0.7,0.6,1.1,1.3,1.3,2.1
			c0.2,0.8,0.3,1.8,0.3,2.8l-0.8,57.8c1.5,0.9,2.6,1.8,3.4,2.8c0.8,1,1.2,2.2,1.2,3.5c0,2.7-0.5,5.2-1.5,7.3c-1,2.1-2.3,3.8-4.1,5.2
			c-1.7,1.4-3.8,2.5-6.1,3.2c-2.4,0.7-5,1.1-7.8,1.1c-2.6,0-4.7-0.2-6.4-0.6c-1.6-0.4-2.9-1.2-3.8-2.4c-0.9-1.2-1.5-2.9-1.8-5.1
			c-0.3-2.2-0.5-5.1-0.5-8.7c0-2,0-4.2,0-6.7c0-2.5,0.1-5,0.1-7.7c0-2.7,0.1-5.4,0.1-8.1c0.1-2.7,0.1-5.4,0.1-8
			C79.8,51.5,79.9,45.3,80,38.9z"/>
		<path style="fill: #FFF" fill="#FFF" class="st1" d="M155,66.8c1.5-1.1,3.2-1.9,5.3-2.4c2.1-0.5,4.5-0.8,7.1-0.8c2.2,0,4.1,0.2,5.5,0.6c1.4,0.4,2.5,1,3.4,1.8
			c0.8,0.8,1.4,1.9,1.7,3.2c0.3,1.3,0.5,2.8,0.5,4.7c0,1.6,0,3.3-0.1,5.1c0,1.8-0.1,3.6-0.2,5.5c-0.1,1.8-0.2,3.6-0.4,5.4
			c-0.2,1.8-0.4,3.4-0.6,5c-0.2,1.8-1.1,3.4-2.5,4.7c-1.4,1.3-3.3,2.3-5.6,3.1c-2.3,0.8-5,1.4-8,1.7c-3,0.3-6.3,0.5-9.8,0.5
			c-3.6,0-7-0.3-10.1-0.8c-3.1-0.5-6-1.4-8.5-2.7c-2.6-1.2-4.8-2.8-6.8-4.8c-2-2-3.6-4.4-5-7.4c-1.3-2.9-2.4-6.3-3.1-10.2
			c-0.7-3.9-1.1-8.4-1.1-13.4c0-6.4,0.5-11.9,1.4-16.6c1-4.7,2.3-8.7,4.1-12c1.8-3.3,3.9-5.9,6.4-7.8c2.5-1.9,5.3-3.3,8.3-4.2
			c1.6-1.3,3.2-2.5,4.7-3.5c1.5-1,3.2-1.9,4.9-2.5c1.7-0.7,3.7-1.2,5.8-1.6c2.1-0.4,4.6-0.5,7.4-0.5c5.4,0,9.4,1.2,12.2,3.7
			c2.8,2.5,4.2,6,4.2,10.7c0,1.3-0.2,2.6-0.5,3.9c-0.3,1.3-0.8,2.5-1.4,3.7c-0.6,1.2-1.3,2.3-2.2,3.3c-0.9,1-1.9,1.9-3,2.6
			c-1.7-0.6-3.4-1.1-5-1.6c-1.6-0.5-3.2-0.9-4.9-1.3c-1.7-0.4-3.5-0.6-5.5-0.9c-2-0.2-4.3-0.3-6.9-0.4c-0.5,1.6-1,3.4-1.5,5.3
			c-0.5,1.9-0.8,3.9-1.2,5.8c-0.3,1.9-0.6,3.7-0.7,5.4c-0.2,1.7-0.3,3.2-0.3,4.5c0,4.1,0.2,7.6,0.5,10.5c0.4,2.9,1,5.3,1.8,7.3
			c0.9,2,2,3.6,3.5,4.9c1.5,1.3,3.3,2.3,5.6,3.1L155,66.8z"/>
		<path style="fill: #FFF" fill="#FFF" class="st1" d="M223.8,66.8c1.5-1.1,3.2-1.9,5.3-2.4c2.1-0.5,4.5-0.8,7.1-0.8c2.2,0,4.1,0.2,5.5,0.6c1.4,0.4,2.5,1,3.4,1.8
			s1.4,1.9,1.7,3.2c0.3,1.3,0.5,2.8,0.5,4.7c0,1.6,0,3.3-0.1,5.1c0,1.8-0.1,3.6-0.2,5.5c-0.1,1.8-0.2,3.6-0.4,5.4
			c-0.2,1.8-0.4,3.4-0.6,5c-0.2,1.8-1.1,3.4-2.5,4.7c-1.4,1.3-3.3,2.3-5.6,3.1c-2.3,0.8-5,1.4-8,1.7c-3,0.3-6.3,0.5-9.8,0.5
			c-3.6,0-7-0.3-10.1-0.8c-3.1-0.5-6-1.4-8.5-2.7c-2.6-1.2-4.8-2.8-6.8-4.8c-2-2-3.6-4.4-5-7.4c-1.3-2.9-2.4-6.3-3.1-10.2
			c-0.7-3.9-1.1-8.4-1.1-13.4c0-6.4,0.5-11.9,1.4-16.6c1-4.7,2.3-8.7,4.1-12c1.8-3.3,3.9-5.9,6.4-7.8c2.5-1.9,5.3-3.3,8.3-4.2
			c1.6-1.3,3.2-2.5,4.7-3.5c1.5-1,3.2-1.9,4.9-2.5c1.7-0.7,3.7-1.2,5.8-1.6c2.1-0.4,4.6-0.5,7.4-0.5c5.4,0,9.4,1.2,12.2,3.7
			c2.8,2.5,4.2,6,4.2,10.7c0,1.3-0.2,2.6-0.5,3.9c-0.3,1.3-0.8,2.5-1.4,3.7c-0.6,1.2-1.3,2.3-2.2,3.3c-0.9,1-1.9,1.9-3,2.6
			c-1.7-0.6-3.4-1.1-5-1.6c-1.6-0.5-3.2-0.9-4.9-1.3c-1.7-0.4-3.5-0.6-5.5-0.9c-2-0.2-4.3-0.3-6.9-0.4c-0.5,1.6-1,3.4-1.5,5.3
			c-0.5,1.9-0.8,3.9-1.2,5.8c-0.3,1.9-0.6,3.7-0.7,5.4c-0.2,1.7-0.3,3.2-0.3,4.5c0,4.1,0.2,7.6,0.5,10.5c0.4,2.9,1,5.3,1.8,7.3
			c0.9,2,2,3.6,3.5,4.9c1.5,1.3,3.3,2.3,5.6,3.1L223.8,66.8z"/>
		<path style="fill: #FFF" fill="#FFF" class="st1" d="M303.1,102.8c-1.1,0.2-2.3,0.4-3.6,0.6c-1.4,0.2-2.9,0.3-4.6,0.4c-1.7,0.1-3.7,0.2-5.9,0.2
			c-2.2,0-4.6,0.1-7.4,0.1c-2.2,0-4.1,0-5.8-0.1c-1.6-0.1-3.1-0.2-4.6-0.4c-1.7-0.2-3.5-0.7-5.2-1.3c-1.8-0.7-3.4-1.5-4.8-2.5
			c-1.4-1-2.6-2.2-3.5-3.4c-0.9-1.3-1.3-2.6-1.3-4c0-2,0-4.3,0.1-6.8c0-2.5,0.1-5.2,0.1-8c0.1-2.8,0.1-5.6,0.2-8.5
			c0.1-2.9,0.1-5.7,0.2-8.4c0.2-6.4,0.3-13,0.5-19.8c-0.5-1.1-0.8-2.2-1.1-3.1c-0.3-1-0.5-1.9-0.7-2.9c-0.2-0.9-0.3-1.9-0.3-2.9
			c-0.1-1-0.1-2-0.1-3.2c0-1.8,0.3-3.3,0.8-4.6c0.6-1.3,1.6-2.4,3-3.3c1.4-0.9,3.4-1.5,5.9-2c2.5-0.4,5.6-0.7,9.4-0.7
			c1.5,0,3.3,0,5.4,0c2.2,0,4.5,0,7,0c2.5,0,5,0,7.6,0.1c2.6,0,5,0.1,7.4,0.1c2.3,0,4.4,0.1,6.2,0.1c1.8,0.1,3.2,0.1,4.2,0.2
			c0.5,0.4,0.9,0.9,1.2,1.7c0.3,0.7,0.6,1.5,0.8,2.4c0.2,0.9,0.4,1.7,0.5,2.6c0.1,0.9,0.2,1.7,0.2,2.4c0,2.3-0.2,4.2-0.7,5.8
			c-0.5,1.6-1.2,2.9-2.2,3.9c-1,1-2.2,1.8-3.6,2.3c-1.4,0.5-3.1,0.9-5,1c-0.9,0.1-2.1,0.2-3.6,0.2c-1.5,0.1-3.3,0.1-5.1,0.2
			c-1.9,0.1-3.8,0.1-5.9,0.1c-2,0-4,0.1-5.9,0.1l-0.5,14.8c1.1-0.1,2.5-0.2,4-0.3c1.5-0.1,3.1-0.1,4.7-0.2c1.6-0.1,3.2-0.1,4.9-0.1
			c1.6,0,3.1,0,4.5-0.1c1.4,0,2.5,0,3.5,0c1,0,1.7,0,2,0c0.6,0.7,1,1.6,1.3,2.6c0.3,1,0.4,2.1,0.4,3.2c0,2-0.2,3.8-0.6,5.3
			c-0.4,1.5-1,2.8-1.7,3.9c-0.7,1.1-1.6,1.9-2.7,2.5c-1,0.6-2.2,0.9-3.5,1.1c-0.5,0.1-1.4,0.1-2.5,0.2c-1.1,0.1-2.4,0.1-3.9,0.2
			c-1.5,0-3.2,0.1-5,0.1c-1.8,0-3.8,0.1-5.8,0.1l-0.2,8.9l27.7,0.2c0.6,0.9,1.1,1.8,1.4,2.7c0.3,0.9,0.4,1.9,0.4,3
			c0,2-0.2,3.8-0.6,5.3c-0.4,1.5-1,2.8-1.7,3.9c-0.7,1.1-1.6,1.9-2.6,2.6C305.5,102.1,304.4,102.6,303.1,102.8z"/>
		<path style="fill: #FFF" fill="#FFF" class="st1" d="M369.4,73.2c1.2,1.5,2.2,2.7,3.1,3.7c0.9,1,1.7,1.9,2.4,2.6c0.7,0.7,1.4,1.3,2,1.7c0.6,0.4,1.3,0.8,1.9,1
			c0.7,0.2,1.4,0.4,2.1,0.5c0.8,0.1,1.7,0.2,2.7,0.3c0.5,0.7,0.8,1.6,1,2.5c0.2,0.9,0.3,1.9,0.3,2.7c0,2.4-0.4,4.6-1.1,6.7
			c-0.8,2.1-1.8,3.9-3.3,5.4c-1.4,1.5-3.2,2.8-5.2,3.7c-2.1,0.9-4.4,1.3-7,1.3c-1.8,0-3.3-0.1-4.5-0.4c-1.2-0.3-2.3-0.8-3.2-1.5
			c-0.9-0.7-1.7-1.6-2.5-2.7c-0.7-1.1-1.6-2.5-2.4-4.1c-1-1.9-2-3.6-2.8-5c-0.9-1.4-1.7-2.7-2.4-3.7c-0.8-1-1.5-1.9-2.2-2.6
			c-0.7-0.7-1.4-1.3-2.1-1.7l-0.8,10.3c-0.2,2.2-0.6,3.9-1.1,5.3c-0.5,1.4-1.3,2.5-2.2,3.3c-1,0.8-2.3,1.4-3.8,1.7
			c-1.6,0.3-3.5,0.4-5.8,0.4c-1.7,0-3.2-0.1-4.5-0.3c-1.2-0.2-2.3-0.5-3.1-0.9c-0.8-0.5-1.5-1.1-1.9-1.9c-0.5-0.8-0.8-1.8-1.1-3.1
			c-0.2-1.3-0.4-2.8-0.5-4.5c-0.1-1.8-0.1-3.8-0.1-6.2c0-2,0-4.2,0.1-6.6c0-2.4,0.1-4.9,0.1-7.4c0.1-2.6,0.1-5.2,0.2-7.8
			c0.1-2.6,0.1-5.1,0.2-7.6c0.2-5.7,0.3-11.5,0.5-17.5c-0.4-1.7-0.7-3.3-0.9-4.9c-0.2-1.6-0.3-3.1-0.3-4.7c0-1.6,0.3-2.9,0.8-4.2
			c0.5-1.2,1.5-2.3,2.9-3.2c1.4-0.9,3.3-1.6,5.8-2.2s5.6-1,9.3-1.3c1.6-0.6,3.2-1.2,4.7-1.7c1.5-0.5,3-0.9,4.6-1.2
			c1.5-0.3,3.2-0.6,4.8-0.7c1.7-0.2,3.5-0.2,5.4-0.2c4.3,0,7.9,0.6,10.9,1.8c3,1.2,5.5,2.9,7.4,5.1s3.3,4.8,4.2,7.8
			c0.9,3,1.3,6.3,1.3,9.9c0,3.3-0.3,6.3-0.8,9c-0.5,2.7-1.4,5.3-2.5,7.8c-1.1,2.5-2.6,5-4.4,7.4C374,67.8,371.9,70.4,369.4,73.2z
			 M346.8,64.7c0.6,0,1.3,0.1,2.2,0.2c0.9,0.1,1.7,0.3,2.6,0.5c0.9,0.2,1.8,0.4,2.6,0.5c0.8,0.2,1.5,0.4,2.1,0.5
			c1.2-2.9,2.1-5.6,2.8-8.3s0.9-5.2,0.9-7.8c0-1.9-0.2-3.6-0.6-5.1c-0.4-1.5-1.1-2.7-2-3.7c-0.9-1-2.2-1.8-3.7-2.4
			c-1.5-0.6-3.4-1-5.7-1.2L346.8,64.7z"/>
		<path style="fill: #FFF" fill="#FFF" class="st1" d="M421.7,16.8c4.2,0,7.9,0.5,11,1.5s5.7,2.4,7.7,4c2,1.6,3.6,3.5,4.6,5.6c1,2.1,1.5,4.2,1.5,6.4
			c0,2.5-0.3,4.7-1,6.5c-0.7,1.8-1.6,3.3-2.8,4.5c-1.2,1.2-2.6,2-4.2,2.5c-1.6,0.5-3.3,0.8-5.1,0.8c-1.1,0-2.1-0.1-3-0.2
			c-0.9-0.2-1.7-0.3-2.6-0.6c-0.4-1.5-0.8-2.8-1.3-3.9c-0.5-1.1-1.2-2.1-2.1-3c-0.9-0.9-2-1.7-3.3-2.4c-1.3-0.7-3-1.4-4.9-2.1
			c-0.3,0.8-0.6,1.7-0.7,2.7c-0.2,1-0.2,2-0.2,2.9c0,0.7,0.1,1.3,0.2,1.9c0.1,0.6,0.4,1.1,0.8,1.7c0.4,0.6,1,1.2,1.8,1.9
			c0.8,0.7,1.9,1.5,3.2,2.5c1.4,1,3.1,2.2,5.2,3.5c2.1,1.4,4.6,3,7.5,5c2.5,1.6,4.6,3.2,6.4,4.6c1.7,1.4,3.1,2.9,4.2,4.4
			c1.1,1.5,1.8,3.2,2.3,5c0.5,1.8,0.7,3.9,0.7,6.2c0,3.3-0.6,6.6-1.9,9.7c-1.3,3.1-3.2,5.9-5.8,8.4c-2.6,2.4-5.8,4.4-9.6,5.9
			c-3.9,1.5-8.3,2.2-13.5,2.2c-4.2,0-8-0.3-11.4-1s-6.4-1.7-8.9-3.2c-2.5-1.5-4.4-3.4-5.7-5.7c-1.3-2.3-2-5.2-2-8.5
			c0-2,0.3-3.9,0.9-5.5c0.6-1.6,1.4-3.1,2.5-4.2c1.1-1.2,2.3-2.1,3.8-2.7c1.4-0.6,3-1,4.6-1c0.6,0,1.2,0,1.8,0.1
			c0.6,0.1,1.2,0.2,1.9,0.4c1.6,2.9,3,5.2,4.3,7.1c1.3,1.8,2.5,3.3,3.7,4.3c1.2,1.1,2.3,1.8,3.4,2.2c1.1,0.4,2.2,0.6,3.3,0.6
			c0.8,0,1.5-0.1,2-0.3c0.6-0.2,1-0.5,1.4-0.8c0.4-0.3,0.6-0.7,0.8-1.2c0.2-0.4,0.3-0.9,0.3-1.4c0-0.3-0.1-0.7-0.3-1.1
			c-0.2-0.4-0.5-0.8-1-1.4c-0.5-0.5-1.2-1.2-2-1.9c-0.9-0.7-2-1.6-3.4-2.7c-1.4-1.1-3.1-2.3-5.1-3.7c-2-1.4-4.4-3.1-7.1-5
			c-2.2-1.6-4.1-3.1-5.6-4.7c-1.5-1.6-2.8-3.2-3.7-4.9c-0.9-1.7-1.6-3.5-2-5.4c-0.4-1.9-0.6-3.9-0.6-6c0-1.9,0.2-3.8,0.6-5.7
			c0.4-1.9,1-3.8,1.8-5.6c0.8-1.8,1.8-3.5,2.9-5c1.2-1.6,2.6-2.9,4.1-4c1.1-1.8,2.3-3.4,3.4-4.7c1.2-1.3,2.5-2.4,4.1-3.2
			c1.5-0.8,3.3-1.4,5.3-1.8C416.5,17,418.9,16.8,421.7,16.8z"/>
		<path style="fill: #FFF" fill="#FFF" class="st1" d="M456.9,22.5c0-5.6,1-9.7,3.1-12.4c2-2.7,5-4,8.9-4c2.5,0,4.8,0.5,7,1.5c2.1,1,4,2.3,5.6,4
			c1.6,1.7,2.8,3.6,3.7,5.8c0.9,2.2,1.3,4.5,1.3,7c0,2.1-0.3,4.2-0.8,6.3c-0.5,2.1-1.2,4.1-2.1,6.1c-0.9,1.9-2,3.8-3.3,5.5
			c-1.3,1.7-2.7,3.2-4.3,4.4c-1.6,1.2-3.3,2.2-5.1,2.9c-1.8,0.7-3.7,1.1-5.7,1.1c-2.3,0-4.2-0.5-5.6-1.6c-1.4-1.1-2.3-2.6-2.6-4.6
			c0.6-0.9,1.2-2,1.9-3.2c0.7-1.3,1.3-2.6,2-3.9c0.6-1.3,1.2-2.6,1.7-3.9c0.5-1.3,0.9-2.3,1.1-3.1c-1.1-0.5-2.1-1-2.9-1.5
			c-0.8-0.5-1.5-1.1-2.1-1.7c-0.6-0.6-1-1.3-1.3-2C457,24.4,456.9,23.5,456.9,22.5z"/>
	</g>
	<g  style="fill: #FFF" fill="#FFF">
		<path style="fill: #FFF" fill="#FFF" class="st1" d="M34.4,146.7c0,0,7.2-0.1,11.3-0.1c13.2,0,16,4.4,16,18.3c0,14.5-3.1,18.4-17.7,18.4c-3.1,0-6.7-0.1-8.6-0.3
			c-0.7,0-1-0.3-1-1.1V146.7z M38.3,179.9c0,0,3.5,0.1,7.2,0.1c9.8,0,12.3-2.5,12.3-15.2c0-12.7-2.5-15.1-12.3-15.1
			c-2.6,0-7.2,0.1-7.2,0.1V179.9z"/>
		<path style="fill: #FFF" fill="#FFF" class="st1" d="M94,183.1c-0.7,0-1-0.3-1-1.1v-35h21.6v3.4H96.8v12.6h16.5v3.3H96.8v13.2h18.4v3.6H94z"/>
		<path style="fill: #FFF" fill="#FFF" class="st1" d="M147.4,183.1c-0.7,0-1-0.3-1-1.1v-35h2.8c0.7,0,1,0.3,1,1.1v31.3H167v3.7H147.4z"/>
		<path style="fill: #FFF" fill="#FFF" class="st1" d="M198,183.1c-0.7,0-1-0.3-1-1.1v-35h2.8c0.7,0,1,0.3,1,1.1v35H198z"/>
		<path style="fill: #FFF" fill="#FFF" class="st1" d="M257.1,183.1c-0.9,0-1.3-0.2-1.7-0.6c-0.3-0.3-0.5-0.9-1.2-0.9c-0.4,0-0.7,0.2-1.2,0.4
			c-1.9,0.9-5.1,1.7-7.6,1.7c-9,0-13.7-5.1-13.7-18.8c0-13.3,6.2-18.6,15.8-18.6c5.4,0,9.9,1.8,9.9,1.8l-1.1,3.4
			c-0.1,0.3-0.3,0.5-0.6,0.5c-0.2,0-0.6-0.1-1-0.4c-1.8-1.2-4-1.9-7-1.9c-7.4,0-11.8,3.5-11.8,15.2c0,11.4,2.8,15.3,11.9,15.3
			c3.7,0,6.3-1.5,6.3-1.5c1-0.7,1.1-1,1.1-2.4v-11h2.7c0.7,0,1,0.3,1,1.1v16.7H257.1z"/>
		<path style="fill: #FFF" fill="#FFF" class="st1" d="M315.5,183.1c-0.7,0-1-0.3-1-1.1v-15.5h-19.8v16.6h-2.8c-0.7,0-1-0.3-1-1.1v-35h2.8c0.7,0,1,0.3,1,1.1v14.8
			h19.8v-15.9h2.7c0.7,0,1,0.3,1,1.1v35H315.5z"/>
		<path style="fill: #FFF" fill="#FFF" class="st1" d="M360.1,183.1c-0.7,0-1-0.3-1-1.1v-31.6h-12.2v-3.4h28.2v3.4h-12.2v32.7H360.1z"/>
		<path style="fill: #FFF" fill="#FFF" class="st1" d="M402.7,179c0,0,4.4,1.1,7.9,1.1c8.2,0,9-4.1,9-7.4c0-4.4-3.9-5.2-7.8-6.1c0,0-1.2-0.2-1.2-0.2
			c-5.6-1-9.1-3.3-9.1-8.9c0-4.8,2-11.1,11.6-11.1c5.3,0,8.7,1.4,8.7,1.4l-1.1,3.4c-0.1,0.2-0.3,0.4-0.6,0.4c-0.2,0-0.5-0.1-0.8-0.3
			c-1.5-1-3.5-1.5-6-1.5c-5.2,0-7.8,2.8-7.8,7.6c0,4.3,4.4,5.3,6.8,5.8l2.5,0.5c4.3,0.9,8.8,2.3,8.8,8.9c0,7.6-4.1,11-12,11
			c-5.1,0-9.6-1.4-9.6-1.4L402.7,179z"/>
	</g>
</g>
</svg>
